<?xml version="1.0" encoding="UTF-8" standalone="no"?>
<!DOCTYPE svg PUBLIC "-//W3C//DTD SVG 1.1//EN"
 "http://www.w3.org/Graphics/SVG/1.1/DTD/svg11.dtd">
<!-- Generated by graphviz version 13.1.0 (20250701.0955)
 -->
<!-- Title: ad9833_basic_set_used_register Pages: 1 -->
<svg width="306pt" height="90pt"
 viewBox="0.00 0.00 306.00 90.00" xmlns="http://www.w3.org/2000/svg" xmlns:xlink="http://www.w3.org/1999/xlink">
<g id="graph0" class="graph" transform="scale(1 1) rotate(0) translate(4 86)">
<title>ad9833_basic_set_used_register</title>
<!-- Node1 -->
<g id="Node000001" class="node">
<title>Node1</title>
<g id="a_Node000001"><a xlink:title="basic example set used register">
<polygon fill="#999999" stroke="#666666" points="121,-57 0,-57 0,-25 121,-25 121,-57"/>
<text xml:space="preserve" text-anchor="start" x="8" y="-43.5" font-family="Helvetica,sans-Serif" font-size="10.00">ad9833_basic_set_used</text>
<text xml:space="preserve" text-anchor="middle" x="60.5" y="-31.5" font-family="Helvetica,sans-Serif" font-size="10.00">_register</text>
</a>
</g>
</g>
<!-- Node2 -->
<g id="Node000002" class="node">
<title>Node2</title>
<g id="a_Node000002"><a xlink:href="group__ad9833__basic__driver.html#ga7dd5063694aaa71dd9b261a0250d5dcd" target="_top" xlink:title="set the used frequency register">
<polygon fill="white" stroke="#666666" points="297.5,-82 157,-82 157,-50 297.5,-50 297.5,-82"/>
<text xml:space="preserve" text-anchor="start" x="165" y="-68.5" font-family="Helvetica,sans-Serif" font-size="10.00">ad9833_set_used_frequency</text>
<text xml:space="preserve" text-anchor="middle" x="227.25" y="-56.5" font-family="Helvetica,sans-Serif" font-size="10.00">_register</text>
</a>
</g>
</g>
<!-- Node1&#45;&gt;Node2 -->
<g id="edge1_Node000001_Node000002" class="edge">
<title>Node1&#45;&gt;Node2</title>
<g id="a_edge1_Node000001_Node000002"><a xlink:title=" ">
<path fill="none" stroke="#63b8ff" d="M121.44,-50.1C129.2,-51.27 137.24,-52.49 145.26,-53.71"/>
<polygon fill="#63b8ff" stroke="#63b8ff" points="144.66,-57.16 155.07,-55.2 145.71,-50.24 144.66,-57.16"/>
</a>
</g>
</g>
<!-- Node3 -->
<g id="Node000003" class="node">
<title>Node3</title>
<g id="a_Node000003"><a xlink:href="group__ad9833__basic__driver.html#gae05a968cce0feb26d962299c1f2d48b3" target="_top" xlink:title="set the used phase register">
<polygon fill="white" stroke="#666666" points="289.25,-32 165.25,-32 165.25,0 289.25,0 289.25,-32"/>
<text xml:space="preserve" text-anchor="start" x="173.25" y="-18.5" font-family="Helvetica,sans-Serif" font-size="10.00">ad9833_set_used_phase</text>
<text xml:space="preserve" text-anchor="middle" x="227.25" y="-6.5" font-family="Helvetica,sans-Serif" font-size="10.00">_register</text>
</a>
</g>
</g>
<!-- Node1&#45;&gt;Node3 -->
<g id="edge2_Node000001_Node000003" class="edge">
<title>Node1&#45;&gt;Node3</title>
<g id="a_edge2_Node000001_Node000003"><a xlink:title=" ">
<path fill="none" stroke="#63b8ff" d="M121.44,-31.9C131.96,-30.31 143,-28.63 153.82,-26.99"/>
<polygon fill="#63b8ff" stroke="#63b8ff" points="154.11,-30.49 163.47,-25.53 153.06,-23.57 154.11,-30.49"/>
</a>
</g>
</g>
</g>
</svg>
