<?xml version="1.0" encoding="UTF-8" standalone="no"?>
<!DOCTYPE svg PUBLIC "-//W3C//DTD SVG 1.1//EN"
 "http://www.w3.org/Graphics/SVG/1.1/DTD/svg11.dtd">
<!-- Generated by graphviz version 13.1.0 (20250701.0955)
 -->
<!-- Title: ad9833_basic_set_phase Pages: 1 -->
<svg width="287pt" height="78pt"
 viewBox="0.00 0.00 287.00 78.00" xmlns="http://www.w3.org/2000/svg" xmlns:xlink="http://www.w3.org/1999/xlink">
<g id="graph0" class="graph" transform="scale(1 1) rotate(0) translate(4 74)">
<title>ad9833_basic_set_phase</title>
<!-- Node1 -->
<g id="Node000001" class="node">
<title>Node1</title>
<g id="a_Node000001"><a xlink:title="basic example set phase">
<polygon fill="#999999" stroke="#666666" points="126.25,-42 0,-42 0,-22 126.25,-22 126.25,-42"/>
<text xml:space="preserve" text-anchor="middle" x="63.12" y="-28.5" font-family="Helvetica,sans-Serif" font-size="10.00">ad9833_basic_set_phase</text>
</a>
</g>
</g>
<!-- Node2 -->
<g id="Node000002" class="node">
<title>Node2</title>
<g id="a_Node000002"><a xlink:href="group__ad9833__basic__driver.html#ga7e97e2bd2adcf6cfd9ad7fbafc2811f0" target="_top" xlink:title="convert the phase to the register raw data">
<polygon fill="white" stroke="#666666" points="278.75,-70 162.25,-70 162.25,-38 278.75,-38 278.75,-70"/>
<text xml:space="preserve" text-anchor="start" x="170.25" y="-56.5" font-family="Helvetica,sans-Serif" font-size="10.00">ad9833_phase_convert</text>
<text xml:space="preserve" text-anchor="middle" x="220.5" y="-44.5" font-family="Helvetica,sans-Serif" font-size="10.00">_to_register</text>
</a>
</g>
</g>
<!-- Node1&#45;&gt;Node2 -->
<g id="edge1_Node000001_Node000002" class="edge">
<title>Node1&#45;&gt;Node2</title>
<g id="a_edge1_Node000001_Node000002"><a xlink:title=" ">
<path fill="none" stroke="#63b8ff" d="M126.43,-40.82C134.46,-41.96 142.72,-43.13 150.85,-44.28"/>
<polygon fill="#63b8ff" stroke="#63b8ff" points="150.33,-47.74 160.72,-45.68 151.31,-40.81 150.33,-47.74"/>
</a>
</g>
</g>
<!-- Node3 -->
<g id="Node000003" class="node">
<title>Node3</title>
<g id="a_Node000003"><a xlink:href="group__ad9833__basic__driver.html#gaeb9d25ad1a0c347b11ebd516f04e743a" target="_top" xlink:title="set the phase">
<polygon fill="white" stroke="#666666" points="269.38,-20 171.62,-20 171.62,0 269.38,0 269.38,-20"/>
<text xml:space="preserve" text-anchor="middle" x="220.5" y="-6.5" font-family="Helvetica,sans-Serif" font-size="10.00">ad9833_set_phase</text>
</a>
</g>
</g>
<!-- Node1&#45;&gt;Node3 -->
<g id="edge2_Node000001_Node000003" class="edge">
<title>Node1&#45;&gt;Node3</title>
<g id="a_edge2_Node000001_Node000003"><a xlink:title=" ">
<path fill="none" stroke="#63b8ff" d="M126.43,-23.18C137.58,-21.6 149.17,-19.96 160.24,-18.39"/>
<polygon fill="#63b8ff" stroke="#63b8ff" points="160.63,-21.87 170.04,-17 159.65,-14.94 160.63,-21.87"/>
</a>
</g>
</g>
</g>
</svg>
