<?xml version="1.0" encoding="UTF-8" standalone="no"?>
<!DOCTYPE svg PUBLIC "-//W3C//DTD SVG 1.1//EN"
 "http://www.w3.org/Graphics/SVG/1.1/DTD/svg11.dtd">
<!-- Generated by graphviz version 13.1.0 (20250701.0955)
 -->
<!-- Title: ad9833_basic_set_frequency Pages: 1 -->
<svg width="320pt" height="78pt"
 viewBox="0.00 0.00 320.00 78.00" xmlns="http://www.w3.org/2000/svg" xmlns:xlink="http://www.w3.org/1999/xlink">
<g id="graph0" class="graph" transform="scale(1 1) rotate(0) translate(4 74)">
<title>ad9833_basic_set_frequency</title>
<!-- Node1 -->
<g id="Node000001" class="node">
<title>Node1</title>
<g id="a_Node000001"><a xlink:title="basic example set frequency">
<polygon fill="#999999" stroke="#666666" points="142.75,-42 0,-42 0,-22 142.75,-22 142.75,-42"/>
<text xml:space="preserve" text-anchor="middle" x="71.38" y="-28.5" font-family="Helvetica,sans-Serif" font-size="10.00">ad9833_basic_set_frequency</text>
</a>
</g>
</g>
<!-- Node2 -->
<g id="Node000002" class="node">
<title>Node2</title>
<g id="a_Node000002"><a xlink:href="group__ad9833__basic__driver.html#ga2951b9fbeae425920639fe8a3d498342" target="_top" xlink:title="convert the frequency to the register raw data">
<polygon fill="white" stroke="#666666" points="311.75,-70 178.75,-70 178.75,-38 311.75,-38 311.75,-70"/>
<text xml:space="preserve" text-anchor="start" x="186.75" y="-56.5" font-family="Helvetica,sans-Serif" font-size="10.00">ad9833_frequency_convert</text>
<text xml:space="preserve" text-anchor="middle" x="245.25" y="-44.5" font-family="Helvetica,sans-Serif" font-size="10.00">_to_register</text>
</a>
</g>
</g>
<!-- Node1&#45;&gt;Node2 -->
<g id="edge1_Node000001_Node000002" class="edge">
<title>Node1&#45;&gt;Node2</title>
<g id="a_edge1_Node000001_Node000002"><a xlink:title=" ">
<path fill="none" stroke="#63b8ff" d="M142.78,-41.01C150.78,-42.04 158.97,-43.08 167.05,-44.12"/>
<polygon fill="#63b8ff" stroke="#63b8ff" points="166.52,-47.58 176.88,-45.38 167.41,-40.64 166.52,-47.58"/>
</a>
</g>
</g>
<!-- Node3 -->
<g id="Node000003" class="node">
<title>Node3</title>
<g id="a_Node000003"><a xlink:href="group__ad9833__basic__driver.html#ga9ea33e289635720bf5c863947eb14fc9" target="_top" xlink:title="set the frequency">
<polygon fill="white" stroke="#666666" points="302.38,-20 188.12,-20 188.12,0 302.38,0 302.38,-20"/>
<text xml:space="preserve" text-anchor="middle" x="245.25" y="-6.5" font-family="Helvetica,sans-Serif" font-size="10.00">ad9833_set_frequency</text>
</a>
</g>
</g>
<!-- Node1&#45;&gt;Node3 -->
<g id="edge2_Node000001_Node000003" class="edge">
<title>Node1&#45;&gt;Node3</title>
<g id="a_edge2_Node000001_Node000003"><a xlink:title=" ">
<path fill="none" stroke="#63b8ff" d="M142.78,-22.99C153.93,-21.56 165.43,-20.09 176.52,-18.67"/>
<polygon fill="#63b8ff" stroke="#63b8ff" points="176.9,-22.15 186.38,-17.41 176.02,-15.21 176.9,-22.15"/>
</a>
</g>
</g>
</g>
</svg>
