<?xml version="1.0" encoding="UTF-8" standalone="no"?>
<!DOCTYPE svg PUBLIC "-//W3C//DTD SVG 1.1//EN"
 "http://www.w3.org/Graphics/SVG/1.1/DTD/svg11.dtd">
<!-- Generated by graphviz version 13.1.0 (20250701.0955)
 -->
<!-- Title: ad9833_basic_init Pages: 1 -->
<svg width="285pt" height="380pt"
 viewBox="0.00 0.00 285.00 380.00" xmlns="http://www.w3.org/2000/svg" xmlns:xlink="http://www.w3.org/1999/xlink">
<g id="graph0" class="graph" transform="scale(1 1) rotate(0) translate(4 376)">
<title>ad9833_basic_init</title>
<!-- Node1 -->
<g id="Node000001" class="node">
<title>Node1</title>
<g id="a_Node000001"><a xlink:title="basic example init">
<polygon fill="#999999" stroke="#666666" points="94,-202 0,-202 0,-182 94,-182 94,-202"/>
<text xml:space="preserve" text-anchor="middle" x="47" y="-188.5" font-family="Helvetica,sans-Serif" font-size="10.00">ad9833_basic_init</text>
</a>
</g>
</g>
<!-- Node2 -->
<g id="Node000002" class="node">
<title>Node2</title>
<g id="a_Node000002"><a xlink:href="group__ad9833__basic__driver.html#gaad580f13c1e8a0f5a042e442ce4c8d1c" target="_top" xlink:title="close the chip">
<polygon fill="white" stroke="#666666" points="241.62,-372 165.62,-372 165.62,-352 241.62,-352 241.62,-372"/>
<text xml:space="preserve" text-anchor="middle" x="203.62" y="-358.5" font-family="Helvetica,sans-Serif" font-size="10.00">ad9833_deinit</text>
</a>
</g>
</g>
<!-- Node1&#45;&gt;Node2 -->
<g id="edge1_Node000001_Node000002" class="edge">
<title>Node1&#45;&gt;Node2</title>
<g id="a_edge1_Node000001_Node000002"><a xlink:title=" ">
<path fill="none" stroke="#63b8ff" d="M50.52,-202.29C57.78,-229.69 81.39,-304.92 130,-343 137.07,-348.54 145.59,-352.47 154.28,-355.26"/>
<polygon fill="#63b8ff" stroke="#63b8ff" points="153.24,-358.61 163.81,-357.83 155.06,-351.85 153.24,-358.61"/>
</a>
</g>
</g>
<!-- Node3 -->
<g id="Node000003" class="node">
<title>Node3</title>
<g id="a_Node000003"><a xlink:href="group__ad9833__basic__driver.html#ga961660218f1db7fd76a72dadba5db321" target="_top" xlink:title="initialize the chip">
<polygon fill="white" stroke="#666666" points="236.38,-334 170.88,-334 170.88,-314 236.38,-314 236.38,-334"/>
<text xml:space="preserve" text-anchor="middle" x="203.62" y="-320.5" font-family="Helvetica,sans-Serif" font-size="10.00">ad9833_init</text>
</a>
</g>
</g>
<!-- Node1&#45;&gt;Node3 -->
<g id="edge2_Node000001_Node000003" class="edge">
<title>Node1&#45;&gt;Node3</title>
<g id="a_edge2_Node000001_Node000003"><a xlink:title=" ">
<path fill="none" stroke="#63b8ff" d="M52.46,-202.26C62.72,-224.6 90.17,-277.79 130,-305 138.77,-310.99 149.32,-315.1 159.63,-317.91"/>
<polygon fill="#63b8ff" stroke="#63b8ff" points="158.61,-321.26 169.14,-320.13 160.2,-314.45 158.61,-321.26"/>
</a>
</g>
</g>
<!-- Node4 -->
<g id="Node000004" class="node">
<title>Node4</title>
<g id="a_Node000004"><a xlink:href="group__ad9833__interface__driver.html#ga0fa51124e07d3cd68b14e2245b2f94ab" target="_top" xlink:title="interface print format data">
<polygon fill="white" stroke="#666666" points="264.5,-296 142.75,-296 142.75,-264 264.5,-264 264.5,-296"/>
<text xml:space="preserve" text-anchor="start" x="150.75" y="-282.5" font-family="Helvetica,sans-Serif" font-size="10.00">ad9833_interface_debug</text>
<text xml:space="preserve" text-anchor="middle" x="203.62" y="-270.5" font-family="Helvetica,sans-Serif" font-size="10.00">_print</text>
</a>
</g>
</g>
<!-- Node1&#45;&gt;Node4 -->
<g id="edge3_Node000001_Node000004" class="edge">
<title>Node1&#45;&gt;Node4</title>
<g id="a_edge3_Node000001_Node000004"><a xlink:title=" ">
<path fill="none" stroke="#63b8ff" d="M59.12,-202.46C74.17,-216.15 102.33,-240.12 130,-255 132.66,-256.43 135.42,-257.8 138.24,-259.12"/>
<polygon fill="#63b8ff" stroke="#63b8ff" points="136.68,-262.26 147.25,-263.02 139.46,-255.83 136.68,-262.26"/>
</a>
</g>
</g>
<!-- Node5 -->
<g id="Node000005" class="node">
<title>Node5</title>
<g id="a_Node000005"><a xlink:href="group__ad9833__interface__driver.html#gaf8705662e5e24e8453ede81489320da1" target="_top" xlink:title="interface delay ms">
<polygon fill="white" stroke="#666666" points="272.38,-246 134.88,-246 134.88,-226 272.38,-226 272.38,-246"/>
<text xml:space="preserve" text-anchor="middle" x="203.62" y="-232.5" font-family="Helvetica,sans-Serif" font-size="10.00">ad9833_interface_delay_ms</text>
</a>
</g>
</g>
<!-- Node1&#45;&gt;Node5 -->
<g id="edge4_Node000001_Node000005" class="edge">
<title>Node1&#45;&gt;Node5</title>
<g id="a_edge4_Node000001_Node000005"><a xlink:title=" ">
<path fill="none" stroke="#63b8ff" d="M81.03,-202.4C95.95,-207.01 113.82,-212.42 130,-217 136.67,-218.89 143.69,-220.81 150.65,-222.67"/>
<polygon fill="#63b8ff" stroke="#63b8ff" points="149.42,-225.97 159.99,-225.15 151.22,-219.2 149.42,-225.97"/>
</a>
</g>
</g>
<!-- Node6 -->
<g id="Node000006" class="node">
<title>Node6</title>
<g id="a_Node000006"><a xlink:href="group__ad9833__interface__driver.html#gae1094b6ec9105d51951ef8b66b451a08" target="_top" xlink:title="interface spi bus deinit">
<polygon fill="white" stroke="#666666" points="257.75,-208 149.5,-208 149.5,-176 257.75,-176 257.75,-208"/>
<text xml:space="preserve" text-anchor="start" x="157.5" y="-194.5" font-family="Helvetica,sans-Serif" font-size="10.00">ad9833_interface_spi</text>
<text xml:space="preserve" text-anchor="middle" x="203.62" y="-182.5" font-family="Helvetica,sans-Serif" font-size="10.00">_deinit</text>
</a>
</g>
</g>
<!-- Node1&#45;&gt;Node6 -->
<g id="edge5_Node000001_Node000006" class="edge">
<title>Node1&#45;&gt;Node6</title>
<g id="a_edge5_Node000001_Node000006"><a xlink:title=" ">
<path fill="none" stroke="#63b8ff" d="M94.39,-192C108.01,-192 123.16,-192 137.71,-192"/>
<polygon fill="#63b8ff" stroke="#63b8ff" points="137.69,-195.5 147.69,-192 137.69,-188.5 137.69,-195.5"/>
</a>
</g>
</g>
<!-- Node7 -->
<g id="Node000007" class="node">
<title>Node7</title>
<g id="a_Node000007"><a xlink:href="group__ad9833__interface__driver.html#ga4812986472bc022e477a75582d3324c1" target="_top" xlink:title="interface spi bus init">
<polygon fill="white" stroke="#666666" points="266.75,-158 140.5,-158 140.5,-138 266.75,-138 266.75,-158"/>
<text xml:space="preserve" text-anchor="middle" x="203.62" y="-144.5" font-family="Helvetica,sans-Serif" font-size="10.00">ad9833_interface_spi_init</text>
</a>
</g>
</g>
<!-- Node1&#45;&gt;Node7 -->
<g id="edge6_Node000001_Node000007" class="edge">
<title>Node1&#45;&gt;Node7</title>
<g id="a_edge6_Node000001_Node000007"><a xlink:title=" ">
<path fill="none" stroke="#63b8ff" d="M81.03,-181.6C95.95,-176.99 113.82,-171.58 130,-167 136.67,-165.11 143.69,-163.19 150.65,-161.33"/>
<polygon fill="#63b8ff" stroke="#63b8ff" points="151.22,-164.8 159.99,-158.85 149.42,-158.03 151.22,-164.8"/>
</a>
</g>
</g>
<!-- Node8 -->
<g id="Node000008" class="node">
<title>Node8</title>
<g id="a_Node000008"><a xlink:href="group__ad9833__interface__driver.html#ga27299b5065160f34120ca712fde79562" target="_top" xlink:title="interface spi bus write command">
<polygon fill="white" stroke="#666666" points="257.75,-120 149.5,-120 149.5,-88 257.75,-88 257.75,-120"/>
<text xml:space="preserve" text-anchor="start" x="157.5" y="-106.5" font-family="Helvetica,sans-Serif" font-size="10.00">ad9833_interface_spi</text>
<text xml:space="preserve" text-anchor="middle" x="203.62" y="-94.5" font-family="Helvetica,sans-Serif" font-size="10.00">_write_cmd</text>
</a>
</g>
</g>
<!-- Node1&#45;&gt;Node8 -->
<g id="edge7_Node000001_Node000008" class="edge">
<title>Node1&#45;&gt;Node8</title>
<g id="a_edge7_Node000001_Node000008"><a xlink:title=" ">
<path fill="none" stroke="#63b8ff" d="M59.12,-181.54C74.17,-167.85 102.33,-143.88 130,-129 132.81,-127.49 135.72,-126.04 138.71,-124.66"/>
<polygon fill="#63b8ff" stroke="#63b8ff" points="139.83,-127.99 147.63,-120.82 137.06,-121.56 139.83,-127.99"/>
</a>
</g>
</g>
<!-- Node9 -->
<g id="Node000009" class="node">
<title>Node9</title>
<g id="a_Node000009"><a xlink:href="group__ad9833__basic__driver.html#ga4f7d9046c6fdd4dcea4408cf3e5200d5" target="_top" xlink:title="enable or disable dac power down">
<polygon fill="white" stroke="#666666" points="277.25,-70 130,-70 130,-50 277.25,-50 277.25,-70"/>
<text xml:space="preserve" text-anchor="middle" x="203.62" y="-56.5" font-family="Helvetica,sans-Serif" font-size="10.00">ad9833_set_dac_power_down</text>
</a>
</g>
</g>
<!-- Node1&#45;&gt;Node9 -->
<g id="edge8_Node000001_Node000009" class="edge">
<title>Node1&#45;&gt;Node9</title>
<g id="a_edge8_Node000001_Node000009"><a xlink:title=" ">
<path fill="none" stroke="#63b8ff" d="M52.46,-181.74C62.72,-159.4 90.17,-106.21 130,-79 131.98,-77.65 134.04,-76.4 136.17,-75.23"/>
<polygon fill="#63b8ff" stroke="#63b8ff" points="137.59,-78.43 145.19,-71.04 134.64,-72.08 137.59,-78.43"/>
</a>
</g>
</g>
<!-- Node10 -->
<g id="Node000010" class="node">
<title>Node10</title>
<g id="a_Node000010"><a xlink:href="group__ad9833__basic__driver.html#ga0a10c8165525c9fdbc266beb2d704e5f" target="_top" xlink:title="enable or disable internal clock disable">
<polygon fill="white" stroke="#666666" points="255.12,-32 152.12,-32 152.12,0 255.12,0 255.12,-32"/>
<text xml:space="preserve" text-anchor="start" x="160.12" y="-18.5" font-family="Helvetica,sans-Serif" font-size="10.00">ad9833_set_internal</text>
<text xml:space="preserve" text-anchor="middle" x="203.62" y="-6.5" font-family="Helvetica,sans-Serif" font-size="10.00">_clock_disable</text>
</a>
</g>
</g>
<!-- Node1&#45;&gt;Node10 -->
<g id="edge9_Node000001_Node000010" class="edge">
<title>Node1&#45;&gt;Node10</title>
<g id="a_edge9_Node000001_Node000010"><a xlink:title=" ">
<path fill="none" stroke="#63b8ff" d="M50.79,-181.51C58.58,-154.28 83.09,-80.7 130,-41 133.61,-37.95 137.61,-35.26 141.82,-32.9"/>
<polygon fill="#63b8ff" stroke="#63b8ff" points="143.15,-36.14 150.6,-28.61 140.08,-29.85 143.15,-36.14"/>
</a>
</g>
</g>
</g>
</svg>
